<?xml version="1.0" encoding="utf-8"?>
<!-- Generator: Adobe Illustrator 19.2.0, SVG Export Plug-In . SVG Version: 6.00 Build 0)  -->
<svg version="1.1" id="Layer_1" xmlns="http://www.w3.org/2000/svg" xmlns:xlink="http://www.w3.org/1999/xlink" x="0px" y="0px"
	 viewBox="0 0 680 450" style="enable-background:new 0 0 680 450;" xml:space="preserve">
<style type="text/css">
	.st0{fill:#2A5DA6;}
	.st1{fill:#1FA6DC;}
</style>
<g>
	<g>
		<g>
			<path class="st0" d="M86.8,41.6L86.8,41.6c0-2.3,0-4.7,0-7c0-2.9-1.8-4.7-4.7-4.7c-3.8,0-7.6,0-11.4,0c-0.2,0-0.5-0.1-0.7,0.1
				c-0.5,1.9-1.7,3.4-2.9,4.9c-1.9,2.4-3.7,4.8-5.4,7.4c-0.7,1.1-1.4,2.2-1.9,3.4c-0.2,0.5-0.3,1.1,0.2,1.6c0.6,0.4,1,0.1,1.4-0.2
				c2.2-1.6,4.4-3.2,6.6-4.8c1.3-0.9,2.5-2.1,4-2.8c0.5-0.3,1.1-0.5,1.6,0c0.5,0.4,0.5,1.1,0.4,1.6c-0.2,1-0.7,1.9-1.4,2.6
				c-2.6,2.9-5.5,5.4-8.7,7.6c-1.9,1.3-3.8,2.5-5.2,4.5c-1.6,2.3-3,4.6-4.8,6.8l-0.6,0.6c-1,1-1.9,2-3,2.8c-2.2,1.6-4.3,3.3-7.4,2.9
				c-4.7,6.2-8.6,12.9-12.1,19.8c1,0.9,2.2,1.1,3.4,1.1c6.7,0,13.4,0,20.1,0c0.6,0,1.2,0,1.8-0.2c2-0.5,3.3-2.2,3.3-4.4
				c0-7.2,0-14.4,0-21.7c0-1.1,0-2.3,0-3.4l0,0c0.5,0,1,0,1.5,0c4.3-0.1,18.3-0.1,21.3,0h1.1c1.9,0,3.4-1.5,3.4-3.4L86.8,41.6z"/>
		</g>
		<g>
			<path class="st1" d="M45.8,51.6c-0.5,0.1-0.5,0.5-0.4,0.8c0.1,1,0.4,2,0.8,2.9c0.7,2.1,1.5,4.1,2.1,6.2c0.2,0.5-0.1,1-0.2,1.5
				c-0.8,0.6-1.5,0.5-2.1-0.3c-0.5-0.7-0.7-1.4-0.9-2.3c-0.4-2.1-1.1-4.2-1.6-6.3c-0.1-0.5-0.2-1-0.8-1.2C42,53,41.8,53.3,41.9,54
				c0.4,2,0.8,4,1.4,6c0.2,0.7,0.3,1.3,0.4,2c0.1,0.7-0.2,1.3-0.8,1.5s-1,0-1.4-0.7c-0.8-1.5-0.9-3.2-1.2-4.8
				c-0.2-1.3-0.4-2.5-0.7-3.8c-0.1-0.4-0.3-0.7-0.7-0.9c-0.5,0.1-0.7,0.4-0.7,0.9c0.2,2.2,0.3,4.4,0.5,6.6c0.1,1.2,0,1.5-0.8,1.8
				c-0.5-0.2-0.9-0.7-1-1.3c-0.3-1.3-0.4-2.6-0.5-3.9c-0.2-3.2-0.2-6.5-1.3-9.6c-0.3-0.8-0.4-1.6-0.6-2.4c-1.9-0.1-2.7-1.4-3.3-2.9
				c-0.7-1.7-0.9-3.4-1.3-5.2c-0.4-1.9-1.1-3.7-2.4-5.2c-0.6-0.7-1.2-1.4-2.2-1.4c-1-0.1-1.5,0.4-1.5,1.4c-0.1,0.9,0.2,1.7,0.5,2.5
				c0.8,2.3,1.7,4.6,2,7c0.5,3.5,1,7,1.9,10.5c0.3,1.4,0.6,2.8,1.2,4.2c0.5,1.3,0.8,2.6,0.1,3.9c-0.1-0.1-0.2-0.3-0.5-0.3
				c-1.6,0-3.3,0-4.9,0c-2.9,0-5.7,0.1-8.6,0c-2.5-0.1-4.9,0.1-7.4,0c-0.8,0-1.5-0.1-2.3-0.1c-2.1,0-3.6-2.1-3.8-3.8
				c0-0.2,0-0.4,0-0.6c0-7,0-14,0-21c0-2.4,1.4-4.1,3.6-4.5c0.4-0.1,0.7-0.1,1.1-0.1c7.3,0,14.5,0,21.8,0c0.3,0,0.5,0.1,0.8-0.1
				c0.1-0.3,0.1-0.6,0.1-0.9c0-7.4,0-14.8,0-22.1c0-3,1.8-4.8,4.8-4.8c6.9,0,13.7,0,20.6,0c3,0,4.8,1.8,4.8,4.8c0,5.2,0,10.4,0,15.5
				v0.1c-2.9,4.4-5.6,8.9-8.5,13.2c-0.4,0.6-0.9,1.2-1.5,1.7c-0.4,0.3-0.8,0.6-1.3,0.6c-0.4-0.2-0.4-0.6-0.5-1
				c-0.1-1.8,0.2-3.6,0.5-5.4c0.5-2.9,1.3-5.8,2.4-8.6c0.6-1.4,1-2.8,0.9-4.4c0-0.4,0-0.7-0.2-1c-0.4-1.2-1.4-1.5-2.5-0.8
				c-1,0.7-1.5,1.7-2,2.7c-0.9,1.9-1.3,4-2,6c-1.2,3.9-2.6,7.8-3.9,11.7c0,0.1-0.1,0.3-0.2,0.5c0.5,0,1,0.1,1.5,0.1
				c1.7,0.2,3.3,0.9,4.7,1.9c2.6,1.8,5.4,3.3,8.2,4.7c0.3,0.2,0.6,0.3,0.9,0.5c0.3,0.2,0.7,0.5,0.6,1c-0.1,0.5-0.6,0.8-1.1,0.8
				c-1.3,0.2-2.4-0.2-3.6-0.7c-0.6-0.3-1.3-0.6-1.9-0.9c-1-0.4-2-0.5-3.1-0.3c-0.1,0.7,0.2,1.2,0.5,1.7c1,2.1,2.2,4,3.6,5.9
				c1.1,1.6,2.2,3.2,3,4.9c0.1,0.2,0.2,0.4,0.2,0.6c0.1,0.5,0.3,1-0.2,1.4s-1.4,0.3-1.9-0.1c-1.1-0.9-1.6-2.2-2.4-3.2
				c-0.8-1.1-1.5-2.2-2.3-3.3C46.8,52.2,46.4,51.8,45.8,51.6z"/>
		</g>
		<g>
			<path class="st0" d="M60.2,29.9c1.6,0,3.1,0,4.7,0c0,0.4-0.3,0.6-0.5,0.8c-1.4,1.8-2.8,3.5-4.2,5.3c-0.8,1-1.5,2.1-2.2,3.2
				c-0.6,0.9-1.4,1.6-2.3,2.1c-0.5,0.3-1,0.4-1.5,0s-0.4-0.9-0.3-1.5c0.2-0.9,0.7-1.7,1.2-2.5c1.6-2.4,3.3-4.8,5-7.2
				C60,30.1,60.1,30,60.2,29.9z"/>
		</g>
		<g>
			<path class="st1" d="M83.6,59.8L83.6,59.8L83.6,59.8z"/>
		</g>
		<g>
			<path class="st1" d="M59.4,60L59.4,60L59.4,60z"/>
		</g>
	</g>
	<g>
		<g>
			<path class="st1" d="M184.7,86.3v-8.4h-12.3v8.4c0,0.3-0.1,0.4-0.4,0.4h-0.7c-0.3,0-0.4-0.1-0.4-0.4V68.4c0-0.1,0-0.2,0.1-0.3
				s0.2-0.1,0.3-0.1h0.7c0.3,0,0.4,0.1,0.4,0.4v8h12.3v-8c0-0.1,0-0.2,0.1-0.3s0.2-0.1,0.3-0.1h0.7c0.3,0,0.4,0.1,0.4,0.4v17.9
				c0,0.3-0.1,0.4-0.4,0.4h-0.7C184.8,86.7,184.7,86.6,184.7,86.3z"/>
			<path class="st1" d="M195.6,87c-0.8,0-1.6-0.2-2.4-0.5s-1.4-0.8-1.9-1.4s-1-1.3-1.3-2.1c-0.3-0.8-0.5-1.6-0.5-2.5
				s0.2-1.7,0.5-2.5s0.7-1.5,1.3-2.1c0.5-0.6,1.2-1.1,1.9-1.4c0.7-0.3,1.5-0.5,2.3-0.5s1.5,0.2,2.2,0.5s1.3,0.8,1.8,1.3
				c0.5,0.6,0.9,1.2,1.3,2s0.5,1.6,0.5,2.4c0,0.3-0.1,0.5-0.3,0.6c-0.2,0.1-0.4,0.2-0.7,0.2H191c0,0.6,0.2,1.2,0.4,1.7s0.6,1,1,1.4
				s0.9,0.7,1.4,1c0.5,0.2,1.1,0.4,1.7,0.4h0.1c0.7,0,1.4-0.1,2-0.4s1.2-0.7,1.6-1.1c0.1-0.1,0.2-0.2,0.4-0.2s0.2,0,0.3,0.1l0.3,0.4
				c0.1,0.1,0.2,0.3,0.2,0.4s-0.1,0.2-0.3,0.4c-0.6,0.5-1.3,1-2,1.3C197.3,86.8,196.5,87,195.6,87z M195.5,75.5
				c-0.6,0-1.1,0.1-1.6,0.3s-0.9,0.5-1.3,0.9s-0.7,0.8-1,1.3s-0.4,1.1-0.5,1.7h8.8c-0.1-0.6-0.2-1.1-0.5-1.7c-0.3-0.5-0.6-1-1-1.3
				c-0.4-0.4-0.8-0.7-1.3-0.9S196,75.5,195.5,75.5z"/>
			<path class="st1" d="M215,74.9v11.5c0,0.3-0.1,0.4-0.4,0.4H214c-0.2,0-0.3,0-0.3-0.1s-0.1-0.2-0.1-0.4v-2.2
				c-0.3,0.9-0.9,1.7-1.7,2.2s-1.8,0.8-2.9,0.8c-0.9,0-1.7-0.2-2.4-0.5s-1.4-0.8-1.9-1.4s-1-1.3-1.3-2c-0.3-0.8-0.5-1.6-0.5-2.5
				s0.2-1.7,0.5-2.5s0.7-1.5,1.3-2.1c0.5-0.6,1.2-1.1,1.9-1.4c0.7-0.3,1.5-0.5,2.4-0.5c0.6,0,1.1,0.1,1.6,0.2c0.5,0.1,1,0.3,1.4,0.6
				s0.8,0.6,1,0.9c0.3,0.4,0.5,0.8,0.6,1.2v-2.2c0-0.2,0.1-0.3,0.1-0.4s0.2-0.1,0.4-0.1h0.5C214.9,74.4,215,74.5,215,74.9z
				 M213.6,80.6c0-0.7-0.1-1.3-0.3-2c-0.2-0.6-0.5-1.2-0.9-1.6c-0.4-0.5-0.9-0.8-1.5-1.1s-1.2-0.4-1.9-0.4s-1.3,0.1-1.9,0.4
				c-0.6,0.3-1.1,0.6-1.5,1.1s-0.7,1-1,1.6c-0.2,0.6-0.3,1.3-0.3,2s0.1,1.3,0.4,1.9c0.2,0.6,0.6,1.1,1,1.6s0.9,0.8,1.5,1.1
				c0.6,0.3,1.2,0.4,1.9,0.4s1.3-0.1,1.9-0.4s1-0.6,1.5-1.1c0.4-0.5,0.7-1,0.9-1.6S213.6,81.3,213.6,80.6z"/>
			<path class="st1" d="M218.9,86.3V68.4c0-0.3,0.2-0.5,0.5-0.5h0.5c0.3,0,0.5,0.2,0.5,0.5v17.9c0,0.3-0.2,0.5-0.5,0.5h-0.5
				C219.1,86.7,218.9,86.6,218.9,86.3z"/>
			<path class="st1" d="M228.3,85.4h0.5c0.1,0,0.3,0,0.4,0.1c0.1,0,0.2,0.1,0.2,0.3v0.7c0,0.2-0.1,0.3-0.2,0.3s-0.3,0.1-0.4,0.1
				h-0.4c-0.4,0-0.8,0-1.2-0.1c-0.4-0.1-0.7-0.3-1-0.5s-0.5-0.6-0.6-1c-0.2-0.4-0.2-1-0.2-1.7v-7.8h-1.7c-0.2,0-0.3,0-0.4-0.1
				s-0.1-0.2-0.1-0.4v-0.5c0-0.2,0-0.3,0.1-0.4c0.1-0.1,0.2-0.1,0.4-0.1h1.7v-3.7c0-0.3,0.1-0.4,0.4-0.4l0.6-0.1
				c0.2,0,0.3,0,0.3,0.1c0.1,0.1,0.1,0.3,0.1,0.4v3.7h2.2c0.3,0,0.5,0.2,0.5,0.5v0.4c0,0.3-0.2,0.5-0.5,0.5h-2.2v7.4
				c0,0.9,0.1,1.5,0.4,1.8S227.8,85.4,228.3,85.4z"/>
			<path class="st1" d="M241.8,86.3v-7c0-0.5-0.1-1-0.3-1.4c-0.2-0.4-0.4-0.8-0.7-1.2c-0.3-0.3-0.7-0.6-1.1-0.8s-0.9-0.3-1.4-0.3
				s-1,0.1-1.5,0.3s-0.9,0.4-1.3,0.8c-0.4,0.3-0.7,0.7-0.9,1.2c-0.2,0.4-0.4,0.9-0.4,1.4v7.1c0,0.3-0.2,0.5-0.5,0.5h-0.5
				c-0.3,0-0.5-0.2-0.5-0.5V68.6c0-0.3,0.1-0.5,0.4-0.5h0.6c0.3,0,0.4,0.2,0.4,0.5v7.7c0.4-0.6,1-1.1,1.7-1.5s1.5-0.6,2.4-0.6
				c0.8,0,1.4,0.1,2,0.4c0.6,0.3,1.1,0.7,1.5,1.2s0.7,1.1,1,1.7c0.2,0.7,0.3,1.4,0.3,2.1v6.7c0,0.3-0.1,0.5-0.4,0.5H242
				C241.9,86.7,241.8,86.6,241.8,86.3z"/>
			<path class="st1" d="M256.1,77c-0.4-0.4-1-0.7-1.5-1c-0.6-0.3-1.3-0.5-2-0.5s-1.3,0.1-2,0.4c-0.6,0.2-1.2,0.6-1.6,1
				c-0.5,0.4-0.8,1-1.1,1.6c-0.3,0.6-0.4,1.3-0.4,2c0,0.8,0.1,1.5,0.4,2.1s0.6,1.1,1.1,1.6s1,0.8,1.6,1s1.3,0.4,2,0.4
				c0.6,0,1.2-0.1,1.8-0.4s1.2-0.6,1.8-1.1c0.1-0.1,0.2-0.1,0.3-0.1c0.1,0,0.1,0.1,0.2,0.1l0.4,0.6c0,0,0.1,0.1,0.1,0.2
				s0,0.2-0.1,0.3c-0.6,0.6-1.3,1.1-2.1,1.4c-0.8,0.3-1.6,0.5-2.4,0.5s-1.6-0.2-2.4-0.5s-1.5-0.8-2.1-1.4s-1.1-1.3-1.4-2
				s-0.5-1.6-0.5-2.6c0-0.9,0.2-1.7,0.5-2.5s0.8-1.5,1.4-2c0.6-0.6,1.3-1,2.1-1.4c0.8-0.3,1.6-0.5,2.6-0.5c0.4,0,0.9,0.1,1.3,0.2
				s0.8,0.3,1.2,0.4c0.4,0.2,0.7,0.4,1.1,0.6c0.3,0.2,0.6,0.4,0.9,0.6c0.2,0.2,0.2,0.3,0.1,0.5l-0.5,0.6c0,0.1-0.1,0.1-0.2,0.1
				C256.2,77.1,256.1,77,256.1,77z"/>
			<path class="st1" d="M270.8,74.9v11.5c0,0.3-0.1,0.4-0.4,0.4h-0.6c-0.2,0-0.3,0-0.3-0.1s-0.1-0.2-0.1-0.4v-2.2
				c-0.3,0.9-0.9,1.7-1.7,2.2c-0.8,0.5-1.8,0.8-2.9,0.8c-0.9,0-1.7-0.2-2.4-0.5s-1.4-0.8-1.9-1.4s-1-1.3-1.3-2
				c-0.3-0.8-0.5-1.6-0.5-2.5s0.2-1.7,0.5-2.5s0.7-1.5,1.3-2.1c0.5-0.6,1.2-1.1,1.9-1.4c0.7-0.3,1.5-0.5,2.4-0.5
				c0.6,0,1.1,0.1,1.6,0.2c0.5,0.1,1,0.3,1.4,0.6s0.8,0.6,1,0.9c0.3,0.4,0.5,0.8,0.6,1.2l0.1-2.2c0-0.2,0.1-0.3,0.1-0.4
				c0.1-0.1,0.2-0.1,0.4-0.1h0.5C270.7,74.4,270.8,74.5,270.8,74.9z M269.4,80.6c0-0.7-0.1-1.3-0.3-2c-0.2-0.6-0.5-1.2-0.9-1.6
				s-0.9-0.8-1.5-1.1s-1.2-0.4-1.9-0.4c-0.7,0-1.3,0.1-1.9,0.4c-0.6,0.3-1.1,0.6-1.5,1.1s-0.7,1-1,1.6c-0.2,0.6-0.3,1.3-0.3,2
				s0.1,1.3,0.4,1.9s0.6,1.1,1,1.6s0.9,0.8,1.5,1.1c0.6,0.3,1.2,0.4,1.9,0.4c0.7,0,1.3-0.1,1.9-0.4s1-0.6,1.5-1.1s0.7-1,0.9-1.6
				C269.3,81.9,269.4,81.3,269.4,80.6z"/>
			<path class="st1" d="M274.8,86.3V74.9c0-0.4,0.1-0.6,0.4-0.6h0.6c0.2,0,0.2,0,0.3,0.1s0.1,0.2,0.1,0.3v1.4
				c0.2-0.6,0.6-1.1,1.2-1.5s1.3-0.6,2.1-0.6c0.4,0,0.8,0.1,1.3,0.2c0.5,0.1,0.8,0.3,1.1,0.5c0.1,0.1,0.2,0.2,0.3,0.3
				c0.1,0.1,0.1,0.3,0,0.4l-0.4,0.6c-0.1,0.1-0.2,0.1-0.3,0.1c-0.1,0-0.2,0-0.2-0.1c-0.2-0.2-0.5-0.3-0.8-0.4
				c-0.3-0.1-0.6-0.2-1-0.2c-0.5,0-0.9,0.1-1.3,0.3s-0.7,0.5-1,0.9c-0.3,0.4-0.5,0.8-0.7,1.2c-0.2,0.5-0.2,0.9-0.2,1.4V86
				c0,0.3-0.2,0.5-0.5,0.5h-0.5C274.9,86.7,274.8,86.6,274.8,86.3z"/>
			<path class="st1" d="M289.1,87c-0.8,0-1.6-0.2-2.4-0.5c-0.7-0.3-1.4-0.8-1.9-1.4s-1-1.3-1.3-2.1c-0.3-0.8-0.5-1.6-0.5-2.5
				s0.2-1.7,0.5-2.5s0.7-1.5,1.3-2.1c0.5-0.6,1.2-1.1,1.9-1.4c0.7-0.3,1.5-0.5,2.3-0.5s1.5,0.2,2.2,0.5s1.3,0.8,1.8,1.3
				c0.5,0.6,0.9,1.2,1.3,2c0.3,0.8,0.5,1.6,0.5,2.4c0,0.3-0.1,0.5-0.3,0.6c-0.2,0.1-0.4,0.2-0.7,0.2h-9.3c0,0.6,0.2,1.2,0.4,1.7
				c0.3,0.5,0.6,1,1,1.4s0.9,0.7,1.4,1c0.5,0.2,1.1,0.4,1.7,0.4l0,0c0.7,0,1.4-0.1,2-0.4s1.2-0.7,1.6-1.1c0.1-0.1,0.2-0.2,0.4-0.2
				s0.2,0,0.3,0.1l0.3,0.4c0.1,0.1,0.2,0.3,0.2,0.4s-0.1,0.2-0.3,0.4c-0.6,0.5-1.3,1-2,1.3C290.8,86.8,290,87,289.1,87z M289,75.5
				c-0.6,0-1.1,0.1-1.6,0.3s-0.9,0.5-1.3,0.9s-0.7,0.8-1,1.3s-0.4,1.1-0.5,1.7h8.8c-0.1-0.6-0.2-1.1-0.5-1.7c-0.3-0.5-0.6-1-1-1.3
				c-0.4-0.4-0.8-0.7-1.3-0.9S289.5,75.5,289,75.5z"/>
			<path class="st1" d="M316.5,84.4l4.1-9.8c0.1-0.1,0.2-0.2,0.3-0.2h0.8c0.3,0,0.4,0.1,0.3,0.4l-4.9,11.6c-0.1,0.1-0.1,0.2-0.2,0.3
				c-0.1,0.1-0.2,0.1-0.3,0.1h-0.5c-0.1,0-0.2,0-0.3-0.1c-0.1-0.1-0.1-0.1-0.2-0.3l-2.7-6.5l-2.7,6.5c-0.1,0.1-0.1,0.2-0.2,0.3
				c-0.1,0.1-0.2,0.1-0.3,0.1h-0.5c-0.2,0-0.3,0-0.3-0.1c-0.1-0.1-0.1-0.1-0.2-0.3l-4.8-11.5c-0.1-0.4,0-0.6,0.3-0.6h0.8
				c0.2,0,0.3,0.1,0.4,0.2l4.1,9.8l4.1-9.8c0.1-0.1,0.2-0.2,0.4-0.2h0.9c0.3,0,0.4,0.1,0.3,0.4l-1.4,3.2L316.5,84.4z"/>
			<path class="st1" d="M324.4,70.7c0-0.3,0.1-0.6,0.3-0.8s0.5-0.3,0.8-0.3s0.6,0.1,0.8,0.3s0.3,0.5,0.3,0.8s-0.1,0.6-0.3,0.8
				s-0.5,0.3-0.8,0.3s-0.6-0.1-0.8-0.3S324.4,71.1,324.4,70.7z M324.9,86.3V74.8c0-0.3,0.2-0.5,0.5-0.5h0.5c0.3,0,0.5,0.2,0.5,0.5
				v11.5c0,0.3-0.2,0.5-0.5,0.5h-0.5C325,86.7,324.9,86.6,324.9,86.3z"/>
			<path class="st1" d="M334.2,85.4h0.5c0.1,0,0.3,0,0.4,0.1s0.2,0.1,0.2,0.3v0.7c0,0.2-0.1,0.3-0.2,0.3s-0.3,0.1-0.4,0.1h-0.4
				c-0.4,0-0.8,0-1.2-0.1s-0.7-0.3-1-0.5s-0.5-0.6-0.6-1c-0.2-0.4-0.2-1-0.2-1.7v-7.8h-1.7c-0.2,0-0.3,0-0.4-0.1s-0.1-0.2-0.1-0.4
				v-0.5c0-0.2,0-0.3,0.1-0.4c0.1-0.1,0.2-0.1,0.4-0.1h1.7v-3.7c0-0.3,0.1-0.4,0.4-0.4l0.6-0.1c0.2,0,0.3,0,0.3,0.1s0.1,0.3,0.1,0.4
				v3.7h2.2c0.3,0,0.5,0.2,0.5,0.5v0.4c0,0.3-0.2,0.5-0.5,0.5h-2.2v7.4c0,0.9,0.1,1.5,0.4,1.8S333.7,85.4,334.2,85.4z"/>
			<path class="st1" d="M347.7,86.3v-7c0-0.5-0.1-1-0.3-1.4c-0.2-0.4-0.4-0.8-0.7-1.2c-0.3-0.3-0.7-0.6-1.1-0.8s-0.9-0.3-1.4-0.3
				s-1,0.1-1.5,0.3s-0.9,0.4-1.3,0.8c-0.4,0.3-0.7,0.7-0.9,1.2c-0.2,0.4-0.4,0.9-0.4,1.4v7.1c0,0.3-0.2,0.5-0.5,0.5h-0.5
				c-0.3,0-0.5-0.2-0.5-0.5V68.6c0-0.3,0.1-0.5,0.4-0.5h0.6c0.3,0,0.4,0.2,0.4,0.5v7.7c0.4-0.6,1-1.1,1.7-1.5s1.5-0.6,2.4-0.6
				c0.8,0,1.4,0.1,2,0.4s1.1,0.7,1.5,1.2s0.7,1.1,1,1.7c0.2,0.7,0.3,1.4,0.3,2.1v6.7c0,0.3-0.1,0.5-0.4,0.5h-0.6
				C347.9,86.7,347.7,86.6,347.7,86.3z"/>
			<path class="st1" d="M352.1,80.6c0-0.9,0.2-1.7,0.5-2.5s0.8-1.5,1.3-2.1c0.6-0.6,1.2-1.1,2-1.4c0.8-0.3,1.6-0.5,2.5-0.5
				s1.7,0.2,2.5,0.5s1.4,0.8,2,1.4c0.6,0.6,1,1.3,1.3,2.1c0.3,0.8,0.5,1.6,0.5,2.5s-0.2,1.7-0.5,2.5s-0.8,1.5-1.3,2.1
				c-0.6,0.6-1.2,1.1-2,1.4s-1.6,0.5-2.5,0.5s-1.7-0.2-2.5-0.5s-1.4-0.8-2-1.4s-1-1.3-1.3-2.1S352.1,81.5,352.1,80.6z M353.5,80.6
				c0,0.7,0.1,1.3,0.4,2c0.2,0.6,0.6,1.2,1,1.6s0.9,0.8,1.5,1.1c0.6,0.3,1.2,0.4,1.9,0.4c0.7,0,1.3-0.1,1.9-0.4s1.1-0.6,1.5-1.1
				s0.8-1,1-1.6s0.4-1.3,0.4-2s-0.1-1.3-0.4-2c-0.2-0.6-0.6-1.2-1-1.6c-0.4-0.5-0.9-0.8-1.5-1.1s-1.2-0.4-1.9-0.4
				c-0.7,0-1.3,0.1-1.9,0.4c-0.6,0.3-1.1,0.6-1.5,1.1s-0.8,1-1,1.6C353.6,79.2,353.5,79.9,353.5,80.6z"/>
			<path class="st1" d="M367.2,81.8v-7c0-0.3,0.1-0.4,0.4-0.4h0.6c0.2,0,0.3,0,0.4,0.1s0.1,0.2,0.1,0.4v7c0,0.5,0.1,1,0.3,1.5
				c0.2,0.4,0.5,0.8,0.8,1.2c0.4,0.3,0.8,0.6,1.2,0.8c0.5,0.2,1,0.3,1.5,0.3s1-0.1,1.5-0.3c0.5-0.2,0.9-0.5,1.2-0.8
				c0.4-0.3,0.6-0.7,0.8-1.2c0.2-0.4,0.3-0.9,0.3-1.5v-7c0-0.3,0.2-0.5,0.5-0.5h0.5c0.3,0,0.5,0.2,0.5,0.5v11.5
				c0,0.3-0.2,0.5-0.5,0.5h-0.4c-0.3,0-0.4-0.2-0.5-0.5l-0.1-1.5c-0.4,0.6-1,1.2-1.6,1.6c-0.7,0.4-1.4,0.6-2.3,0.6
				c-0.7,0-1.4-0.1-2-0.4s-1.2-0.6-1.7-1.1s-0.8-1-1.1-1.7C367.4,83.2,367.2,82.5,367.2,81.8z"/>
			<path class="st1" d="M386,85.4h0.5c0.1,0,0.3,0,0.4,0.1s0.2,0.1,0.2,0.3v0.7c0,0.2-0.1,0.3-0.2,0.3s-0.3,0.1-0.4,0.1h-0.4
				c-0.4,0-0.8,0-1.2-0.1s-0.7-0.3-1-0.5s-0.5-0.6-0.6-1c-0.2-0.4-0.2-1-0.2-1.7v-7.8h-1.7c-0.2,0-0.3,0-0.4-0.1s-0.1-0.2-0.1-0.4
				v-0.5c0-0.2,0-0.3,0.1-0.4c0.1-0.1,0.2-0.1,0.4-0.1h1.7v-3.7c0-0.3,0.1-0.4,0.4-0.4l0.6-0.1c0.2,0,0.3,0,0.3,0.1s0.1,0.3,0.1,0.4
				v3.7h2.2c0.3,0,0.5,0.2,0.5,0.5v0.4c0,0.3-0.2,0.5-0.5,0.5h-2.2v7.4c0,0.9,0.1,1.5,0.4,1.8S385.5,85.4,386,85.4z"/>
			<path class="st1" d="M404.2,76.9c-0.3-0.4-0.6-0.8-1.1-1.1c-0.4-0.3-1-0.4-1.5-0.4c-0.7,0-1.3,0.2-1.8,0.6
				c-0.5,0.4-0.7,0.9-0.7,1.5c0,0.3,0.1,0.6,0.2,0.8c0.2,0.2,0.3,0.4,0.6,0.6c0.2,0.2,0.5,0.3,0.8,0.4s0.5,0.2,0.8,0.3
				c2.9,0.7,4.4,2,4.4,3.9c0,0.6-0.1,1.1-0.4,1.5c-0.2,0.4-0.6,0.8-1,1.1c-0.4,0.3-0.9,0.5-1.4,0.7S402,87,401.4,87
				c-1,0-1.8-0.2-2.6-0.7c-0.8-0.4-1.3-1.1-1.6-1.9c-0.1-0.3,0-0.5,0.3-0.6l0.5-0.2c0.3-0.1,0.5,0,0.6,0.3l0.1,0.1
				c0.1,0.3,0.3,0.5,0.5,0.7s0.5,0.4,0.7,0.5c0.3,0.1,0.5,0.2,0.8,0.3c0.3,0.1,0.5,0.1,0.7,0.1c0.3,0,0.6,0,1-0.1
				c0.3-0.1,0.7-0.2,0.9-0.4c0.3-0.2,0.5-0.4,0.7-0.7c0.2-0.3,0.3-0.6,0.3-1s-0.1-0.7-0.3-0.9c-0.2-0.3-0.4-0.5-0.7-0.7
				s-0.6-0.4-1-0.5c-0.4-0.1-0.7-0.2-1.1-0.3c-0.5-0.1-0.9-0.3-1.4-0.5s-0.8-0.4-1.2-0.7c-0.3-0.3-0.6-0.6-0.8-1
				c-0.2-0.4-0.3-0.8-0.3-1.3c0-1,0.4-1.9,1.1-2.5s1.6-0.9,2.8-0.9c0.9,0,1.6,0.2,2.3,0.5s1.2,0.9,1.7,1.7c0.1,0.1,0.1,0.2,0.1,0.3
				s-0.1,0.2-0.2,0.3l-0.5,0.3c-0.2,0.2-0.4,0.1-0.6,0l-0.1-0.1C404.3,77,404.2,77,404.2,76.9z"/>
			<path class="st1" d="M412.9,85.4h0.5c0.1,0,0.3,0,0.4,0.1s0.2,0.1,0.2,0.3v0.7c0,0.2-0.1,0.3-0.2,0.3c-0.1,0-0.3,0.1-0.4,0.1H413
				c-0.4,0-0.8,0-1.2-0.1s-0.7-0.3-1-0.5s-0.5-0.6-0.6-1c-0.2-0.4-0.2-1-0.2-1.7v-7.8h-1.7c-0.2,0-0.3,0-0.4-0.1
				c-0.1-0.1-0.1-0.2-0.1-0.4v-0.5c0-0.2,0-0.3,0.1-0.4c0.1-0.1,0.2-0.1,0.4-0.1h1.7v-3.7c0-0.3,0.1-0.4,0.4-0.4l0.6-0.1
				c0.2,0,0.3,0,0.3,0.1s0.1,0.3,0.1,0.4v3.7h2.2c0.3,0,0.5,0.2,0.5,0.5v0.4c0,0.3-0.2,0.5-0.5,0.5h-2.2v7.4c0,0.9,0.1,1.5,0.4,1.8
				S412.4,85.4,412.9,85.4z"/>
			<path class="st1" d="M417.4,86.3V74.9c0-0.4,0.1-0.6,0.4-0.6h0.6c0.2,0,0.2,0,0.3,0.1s0.1,0.2,0.1,0.3v1.4
				c0.2-0.6,0.6-1.1,1.2-1.5c0.6-0.4,1.3-0.6,2.1-0.6c0.4,0,0.8,0.1,1.3,0.2c0.5,0.1,0.8,0.3,1.1,0.5c0.1,0.1,0.2,0.2,0.3,0.3
				s0.1,0.3,0,0.4l-0.4,0.6c-0.1,0.1-0.2,0.1-0.3,0.1s-0.2,0-0.2-0.1c-0.2-0.2-0.5-0.3-0.8-0.4c-0.3-0.1-0.6-0.2-1-0.2
				c-0.5,0-0.9,0.1-1.3,0.3c-0.4,0.2-0.7,0.5-1,0.9c-0.3,0.4-0.5,0.8-0.7,1.2c-0.2,0.5-0.2,0.9-0.2,1.4V86c0,0.3-0.2,0.5-0.5,0.5
				h-0.5C417.5,86.7,417.4,86.6,417.4,86.3z"/>
			<path class="st1" d="M431.8,87c-0.8,0-1.6-0.2-2.4-0.5c-0.7-0.3-1.4-0.8-1.9-1.4s-1-1.3-1.3-2.1c-0.3-0.8-0.5-1.6-0.5-2.5
				s0.2-1.7,0.5-2.5s0.7-1.5,1.3-2.1c0.5-0.6,1.2-1.1,1.9-1.4c0.7-0.3,1.5-0.5,2.3-0.5s1.5,0.2,2.2,0.5s1.3,0.8,1.8,1.3
				c0.5,0.6,0.9,1.2,1.3,2c0.3,0.8,0.5,1.6,0.5,2.4c0,0.3-0.1,0.5-0.3,0.6s-0.4,0.2-0.7,0.2h-9.3c0,0.6,0.2,1.2,0.4,1.7
				c0.3,0.5,0.6,1,1,1.4s0.9,0.7,1.4,1c0.5,0.2,1.1,0.4,1.7,0.4l0,0c0.7,0,1.4-0.1,2-0.4s1.2-0.7,1.6-1.1c0.1-0.1,0.2-0.2,0.4-0.2
				s0.2,0,0.3,0.1l0.3,0.4c0.1,0.1,0.2,0.3,0.2,0.4s-0.1,0.2-0.3,0.4c-0.6,0.5-1.3,1-2,1.3C433.4,86.8,432.6,87,431.8,87z
				 M431.6,75.5c-0.6,0-1.1,0.1-1.6,0.3s-0.9,0.5-1.3,0.9c-0.4,0.4-0.7,0.8-1,1.3s-0.4,1.1-0.5,1.7h8.8c-0.1-0.6-0.2-1.1-0.5-1.7
				c-0.3-0.5-0.6-1-1-1.3c-0.4-0.4-0.8-0.7-1.3-0.9S432.2,75.5,431.6,75.5z"/>
			<path class="st1" d="M445.9,76.9c-0.3-0.4-0.6-0.8-1.1-1.1c-0.4-0.3-1-0.4-1.5-0.4c-0.7,0-1.3,0.2-1.8,0.6
				c-0.5,0.4-0.7,0.9-0.7,1.5c0,0.3,0.1,0.6,0.2,0.8c0.2,0.2,0.3,0.4,0.6,0.6c0.2,0.2,0.5,0.3,0.8,0.4s0.5,0.2,0.8,0.3
				c2.9,0.7,4.4,2,4.4,3.9c0,0.6-0.1,1.1-0.4,1.5c-0.2,0.4-0.6,0.8-1,1.1c-0.4,0.3-0.9,0.5-1.4,0.7s-1.1,0.2-1.7,0.2
				c-1,0-1.8-0.2-2.6-0.7c-0.8-0.4-1.3-1.1-1.6-1.9c-0.1-0.3,0-0.5,0.3-0.6l0.5-0.2c0.3-0.1,0.5,0,0.6,0.3l0.1,0.1
				c0.1,0.3,0.3,0.5,0.5,0.7s0.5,0.4,0.7,0.5c0.3,0.1,0.5,0.2,0.8,0.3c0.3,0.1,0.5,0.1,0.7,0.1c0.3,0,0.6,0,1-0.1
				c0.3-0.1,0.7-0.2,0.9-0.4c0.3-0.2,0.5-0.4,0.7-0.7c0.2-0.3,0.3-0.6,0.3-1s-0.1-0.7-0.3-0.9c-0.2-0.3-0.4-0.5-0.7-0.7
				s-0.6-0.4-1-0.5s-0.7-0.2-1.1-0.3c-0.5-0.1-0.9-0.3-1.4-0.5s-0.8-0.4-1.2-0.7c-0.3-0.3-0.6-0.6-0.8-1s-0.3-0.8-0.3-1.3
				c0-1,0.4-1.9,1.1-2.5c0.7-0.6,1.6-0.9,2.8-0.9c0.9,0,1.6,0.2,2.3,0.5s1.2,0.9,1.7,1.7c0.1,0.1,0.1,0.2,0.1,0.3s-0.1,0.2-0.2,0.3
				l-0.5,0.3c-0.2,0.2-0.4,0.1-0.6,0l-0.1-0.1C446,77,446,77,445.9,76.9z"/>
			<path class="st1" d="M456.7,76.9c-0.3-0.4-0.6-0.8-1.1-1.1c-0.4-0.3-1-0.4-1.5-0.4c-0.7,0-1.3,0.2-1.8,0.6
				c-0.5,0.4-0.7,0.9-0.7,1.5c0,0.3,0.1,0.6,0.2,0.8c0.2,0.2,0.3,0.4,0.6,0.6c0.2,0.2,0.5,0.3,0.8,0.4s0.5,0.2,0.8,0.3
				c2.9,0.7,4.4,2,4.4,3.9c0,0.6-0.1,1.1-0.4,1.5c-0.2,0.4-0.6,0.8-1,1.1c-0.4,0.3-0.9,0.5-1.4,0.7s-1.1,0.2-1.7,0.2
				c-1,0-1.8-0.2-2.6-0.7c-0.8-0.4-1.3-1.1-1.6-1.9c-0.1-0.3,0-0.5,0.3-0.6l0.5-0.2c0.3-0.1,0.5,0,0.6,0.3l0.1,0.1
				c0.1,0.3,0.3,0.5,0.5,0.7s0.5,0.4,0.7,0.5c0.3,0.1,0.5,0.2,0.8,0.3c0.3,0.1,0.5,0.1,0.7,0.1c0.3,0,0.6,0,1-0.1
				c0.3-0.1,0.7-0.2,0.9-0.4c0.3-0.2,0.5-0.4,0.7-0.7c0.2-0.3,0.3-0.6,0.3-1s-0.1-0.7-0.3-0.9c-0.2-0.3-0.4-0.5-0.7-0.7
				s-0.6-0.4-1-0.5s-0.7-0.2-1.1-0.3c-0.5-0.1-0.9-0.3-1.4-0.5s-0.8-0.4-1.2-0.7c-0.3-0.3-0.6-0.6-0.8-1S450,78,450,77.5
				c0-1,0.4-1.9,1.1-2.5c0.7-0.6,1.6-0.9,2.8-0.9c0.9,0,1.6,0.2,2.3,0.5s1.2,0.9,1.7,1.7c0.1,0.1,0.1,0.2,0.1,0.3s-0.1,0.2-0.2,0.3
				l-0.5,0.3c-0.2,0.2-0.4,0.1-0.6,0l-0.1-0.1C456.7,77,456.7,77,456.7,76.9z"/>
		</g>
		<g>
			<path class="st0" d="M136.8,21.1v6.1c0,1-0.6,1.6-1.6,1.6h-3.6v21.6c0,1-0.6,1.6-1.6,1.6h-6.5c-1,0-1.6-0.6-1.6-1.6V28.8h-3.6
				c-1,0-1.6-0.6-1.6-1.6v-6.1c0-1,0.6-1.6,1.6-1.6h3.6v-8.8c0-1,0.6-1.6,1.6-1.6h6.5c1,0,1.6,0.6,1.6,1.6v8.8h3.6
				C136.2,19.5,136.8,20.1,136.8,21.1z"/>
			<path class="st0" d="M168.1,31.6v18.9c0,1-0.6,1.6-1.6,1.6h-6.3c-1,0-1.6-0.6-1.6-1.6v-0.9c-1.7,2-4.3,3.5-8.4,3.5
				c-5.7,0-10.8-3.4-10.8-10.2s5-10.2,10.8-10.2c4.1,0,6.7,1.2,8.4,2.5v-2.9c0-3.2-1.3-4.6-4-4.6c-2,0-3.3,0.8-3.8,1.9
				c-0.4,0.9-0.7,1.4-1.7,1.4h-6.4c-1,0-1.7-0.6-1.6-1.7c0.8-7,6.8-10.6,13.5-10.6C161.7,18.6,168.1,22.8,168.1,31.6z M158.6,42.9
				c0-2-1.8-3.3-5-3.3c-3,0-4.4,1.4-4.4,3.3s1.4,3.3,4.4,3.3C156.8,46.1,158.6,44.7,158.6,42.9z"/>
			<path class="st0" d="M209.5,35.8c0,9.7-7,17.2-15.6,17.2c-4.4,0-7.5-1.5-9.7-4v14.5c0,1-0.6,1.6-1.6,1.6h-6.5
				c-1,0-1.6-0.6-1.6-1.6V21.1c0-1,0.6-1.6,1.6-1.6h6.5c1,0,1.6,0.6,1.6,1.6v1.4c2.2-2.5,5.4-4,9.7-4
				C202.5,18.6,209.5,26.1,209.5,35.8z M199.7,35.8c0-4.9-3.3-8-7.8-8s-7.8,3.1-7.8,8s3.3,8,7.8,8S199.7,40.7,199.7,35.8z"/>
			<path class="st0" d="M258.4,31.6v18.9c0,1-0.6,1.6-1.6,1.6h-6.3c-1,0-1.6-0.6-1.6-1.6v-0.9c-1.7,2-4.3,3.5-8.4,3.5
				c-5.7,0-10.8-3.4-10.8-10.2s5-10.2,10.8-10.2c4.1,0,6.7,1.2,8.4,2.5v-2.9c0-3.2-1.3-4.6-4-4.6c-2,0-3.3,0.8-3.8,1.9
				c-0.4,0.9-0.7,1.4-1.7,1.4H233c-1,0-1.7-0.6-1.6-1.7c0.8-7,6.8-10.6,13.5-10.6C252.1,18.6,258.4,22.8,258.4,31.6z M248.9,42.9
				c0-2-1.8-3.3-5-3.3c-3,0-4.4,1.4-4.4,3.3s1.4,3.3,4.4,3.3C247.2,46.1,248.9,44.7,248.9,42.9z"/>
			<path class="st0" d="M314.7,18.6c6.4,0,10.1,4,10.1,11.5v20.4c0,1-0.6,1.6-1.6,1.6h-6.5c-1,0-1.6-0.6-1.6-1.6V31
				c0-2.6-1.6-3.4-3.4-3.4c-2,0-3.8,1-3.8,4.2v18.7c0,1-0.6,1.6-1.6,1.6h-6.5c-1,0-1.6-0.6-1.6-1.6V31c0-2.6-1.6-3.4-3.4-3.4
				c-2,0-3.8,1-3.8,4.2v18.7c0,1-0.6,1.6-1.6,1.6h-6.5c-1,0-1.6-0.6-1.6-1.6V21.1c0-1,0.6-1.6,1.6-1.6h6.5c1,0,1.6,0.6,1.6,1.6v1.3
				c1.5-2.3,4.1-3.9,7.5-3.9c3.3,0,5.9,1.3,7.6,3.9C308,20.2,310.8,18.6,314.7,18.6L314.7,18.6z"/>
			<path class="st0" d="M363.4,35.8c0,0.8-0.1,1.6-0.1,2.4c-0.1,1-0.8,1.5-1.8,1.5h-8h-13.8c1.2,3.9,4.2,5.4,7.6,5.4
				c1.8,0,3.7-0.7,4.8-1.6c0.7-0.5,1.2-0.8,2-0.8l6.3-0.1c1.2,0,1.8,0.8,1.3,1.8c-2.5,5.7-7.9,8.6-14.5,8.6
				c-10.8,0-17.7-7.5-17.7-17.2s7.2-17.2,17.5-17.2C356.5,18.6,363.4,26,363.4,35.8z M353.7,32.3c-1-3.7-3.9-5-6.8-5
				c-3.7,0-6.2,1.8-7.2,5H353.7z"/>
			<path class="st0" d="M402.3,8.1v42.4c0,1-0.6,1.6-1.6,1.6h-6.6c-1,0-1.6-0.6-1.6-1.6v-1.4c-2.2,2.5-5.4,4-9.7,4
				c-8.5,0-15.6-7.5-15.6-17.2s7-17.2,15.6-17.2c4.4,0,7.5,1.5,9.7,4V8.2c0-1,0.6-1.6,1.6-1.6h6.5C401.7,6.5,402.3,7,402.3,8.1z
				 M392.5,35.8c0-4.9-3.3-8-7.8-8s-7.8,3.1-7.8,8s3.3,8,7.8,8S392.5,40.7,392.5,35.8z"/>
			<path class="st0" d="M409.4,14V8.1c0-1,0.6-1.6,1.6-1.6h6.5c1,0,1.6,0.6,1.6,1.6V14c0,1-0.6,1.6-1.6,1.6h-6.4
				C410,15.6,409.4,15,409.4,14z M409.4,50.5V21.1c0-1,0.6-1.6,1.6-1.6h6.5c1,0,1.6,0.6,1.6,1.6v29.4c0,1-0.6,1.6-1.6,1.6h-6.4
				C410,52.1,409.4,51.5,409.4,50.5z"/>
			<path class="st0" d="M458.1,41.5c-2,6.8-8.4,11.5-16,11.5c-9.9,0-17.3-7.5-17.3-17.2s7.4-17.2,17.3-17.2c7.6,0,14,4.7,16,11.5
				c0.4,1.1-0.3,1.8-1.4,1.8h-7.2c-0.8,0-1.4-0.4-2-1.1c-1.2-1.6-3.2-2.5-5.5-2.5c-4.2,0-7.5,3.1-7.5,7.6s3.3,7.6,7.5,7.6
				c2.3,0,4.4-0.9,5.5-2.5c0.5-0.8,1-1.2,2-1.2h7.2C457.8,39.7,458.5,40.4,458.1,41.5z"/>
		</g>
	</g>
</g>
</svg>
