<?xml version="1.0" encoding="utf-8"?>
<!-- Generator: Adobe Illustrator 18.0.0, SVG Export Plug-In . SVG Version: 6.00 Build 0)  -->
<!DOCTYPE svg PUBLIC "-//W3C//DTD SVG 1.1//EN" "http://www.w3.org/Graphics/SVG/1.1/DTD/svg11.dtd">
<svg version="1.1" id="Layer_1" xmlns="http://www.w3.org/2000/svg" xmlns:xlink="http://www.w3.org/1999/xlink" x="0px" y="0px"
	 viewBox="0 0 680 450" enable-background="new 0 0 680 450" xml:space="preserve">
<g>
	<g>
		<g>
			<path fill="#2A5DA6" d="M196.7,220.8L196.7,220.8c0-2.3,0-4.7,0-7c0-2.9-1.8-4.7-4.7-4.7c-3.8,0-7.6,0-11.4,0
				c-0.2,0-0.5-0.1-0.7,0.1c-0.5,1.9-1.7,3.4-2.9,4.9c-1.9,2.4-3.7,4.8-5.4,7.4c-0.7,1.1-1.4,2.2-1.9,3.4c-0.2,0.5-0.3,1.1,0.2,1.6
				c0.6,0.4,1,0.1,1.4-0.2c2.2-1.6,4.4-3.2,6.6-4.8c1.3-0.9,2.5-2.1,4-2.8c0.5-0.3,1.1-0.5,1.6,0c0.5,0.4,0.5,1.1,0.4,1.6
				c-0.2,1-0.7,1.9-1.4,2.6c-2.6,2.9-5.5,5.4-8.7,7.6c-1.9,1.3-3.8,2.5-5.2,4.5c-1.6,2.3-3,4.6-4.8,6.8l-0.6,0.6c-1,1-1.9,2-3,2.8
				c-2.2,1.6-4.3,3.3-7.4,2.9c-4.7,6.2-8.6,12.9-12.1,19.8c1,0.9,2.2,1.1,3.4,1.1c6.7,0,13.4,0,20.1,0c0.6,0,1.2,0,1.8-0.2
				c2-0.5,3.3-2.2,3.3-4.4c0-7.2,0-14.4,0-21.7c0-1.1,0-2.3,0-3.4l0,0c0.5,0,1,0,1.5,0c4.3-0.1,18.3-0.1,21.3,0l1.1,0
				c1.9,0,3.4-1.5,3.4-3.4L196.7,220.8z"/>
		</g>
		<g>
			<path fill="#1FA6DC" d="M155.7,230.8c-0.5,0.1-0.5,0.5-0.4,0.8c0.1,1,0.4,2,0.8,2.9c0.7,2.1,1.5,4.1,2.1,6.2
				c0.2,0.5-0.1,1-0.2,1.5c-0.8,0.6-1.5,0.5-2.1-0.3c-0.5-0.7-0.7-1.4-0.9-2.3c-0.4-2.1-1.1-4.2-1.6-6.3c-0.1-0.5-0.2-1-0.8-1.2
				c-0.7,0.1-0.9,0.4-0.8,1.1c0.4,2,0.8,4,1.4,6c0.2,0.7,0.3,1.3,0.4,2c0.1,0.7-0.2,1.3-0.8,1.5c-0.6,0.2-1,0-1.4-0.7
				c-0.8-1.5-0.9-3.2-1.2-4.8c-0.2-1.3-0.4-2.5-0.7-3.8c-0.1-0.4-0.3-0.7-0.7-0.9c-0.5,0.1-0.7,0.4-0.7,0.9c0.2,2.2,0.3,4.4,0.5,6.6
				c0.1,1.2,0,1.5-0.8,1.8c-0.5-0.2-0.9-0.7-1-1.3c-0.3-1.3-0.4-2.6-0.5-3.9c-0.2-3.2-0.2-6.5-1.3-9.6c-0.3-0.8-0.4-1.6-0.6-2.4
				c-1.9-0.1-2.7-1.4-3.3-2.9c-0.7-1.7-0.9-3.4-1.3-5.2c-0.4-1.9-1.1-3.7-2.4-5.2c-0.6-0.7-1.2-1.4-2.2-1.4c-1-0.1-1.5,0.4-1.5,1.4
				c-0.1,0.9,0.2,1.7,0.5,2.5c0.8,2.3,1.7,4.6,2,7c0.5,3.5,1,7,1.9,10.5c0.3,1.4,0.6,2.8,1.2,4.2c0.5,1.3,0.8,2.6,0.1,3.9
				c-0.1-0.1-0.2-0.3-0.5-0.3c-1.6,0-3.3,0-4.9,0c-2.9,0-5.7,0.1-8.6,0c-2.5-0.1-4.9,0.1-7.4,0c-0.8,0-1.5-0.1-2.3-0.1
				c-2.1,0-3.6-2.1-3.8-3.8c0-0.2,0-0.4,0-0.6c0-7,0-14,0-21c0-2.4,1.4-4.1,3.6-4.5c0.4-0.1,0.7-0.1,1.1-0.1c7.3,0,14.5,0,21.8,0
				c0.3,0,0.5,0.1,0.8-0.1c0.1-0.3,0.1-0.6,0.1-0.9c0-7.4,0-14.8,0-22.1c0-3,1.8-4.8,4.8-4.8c6.9,0,13.7,0,20.6,0
				c3,0,4.8,1.8,4.8,4.8c0,5.2,0,10.4,0,15.5c0,0,0,0.1,0,0.1c-2.9,4.4-5.6,8.9-8.5,13.2c-0.4,0.6-0.9,1.2-1.5,1.7
				c-0.4,0.3-0.8,0.6-1.3,0.6c-0.4-0.2-0.4-0.6-0.5-1c-0.1-1.8,0.2-3.6,0.5-5.4c0.5-2.9,1.3-5.8,2.4-8.6c0.6-1.4,1-2.8,0.9-4.4
				c0-0.4,0-0.7-0.2-1c-0.4-1.2-1.4-1.5-2.5-0.8c-1,0.7-1.5,1.7-2,2.7c-0.9,1.9-1.3,4-2,6c-1.2,3.9-2.6,7.8-3.9,11.7
				c0,0.1-0.1,0.3-0.2,0.5c0.5,0,1,0.1,1.5,0.1c1.7,0.2,3.3,0.9,4.7,1.9c2.6,1.8,5.4,3.3,8.2,4.7c0.3,0.2,0.6,0.3,0.9,0.5
				c0.3,0.2,0.7,0.5,0.6,1c-0.1,0.5-0.6,0.8-1.1,0.8c-1.3,0.2-2.4-0.2-3.6-0.7c-0.6-0.3-1.3-0.6-1.9-0.9c-1-0.4-2-0.5-3.1-0.3
				c-0.1,0.7,0.2,1.2,0.5,1.7c1,2.1,2.2,4,3.6,5.9c1.1,1.6,2.2,3.2,3,4.9c0.1,0.2,0.2,0.4,0.2,0.6c0.1,0.5,0.3,1-0.2,1.4
				c-0.5,0.4-1.4,0.3-1.9-0.1c-1.1-0.9-1.6-2.2-2.4-3.2c-0.8-1.1-1.5-2.2-2.3-3.3C156.7,231.4,156.3,231,155.7,230.8z"/>
		</g>
		<g>
			<path fill="#2A5DA6" d="M170.1,209.1c1.6,0,3.1,0,4.7,0c0,0.4-0.3,0.6-0.5,0.8c-1.4,1.8-2.8,3.5-4.2,5.3c-0.8,1-1.5,2.1-2.2,3.2
				c-0.6,0.9-1.4,1.6-2.3,2.1c-0.5,0.3-1,0.4-1.5,0c-0.5-0.4-0.4-0.9-0.3-1.5c0.2-0.9,0.7-1.7,1.2-2.5c1.6-2.4,3.3-4.8,5-7.2
				C169.9,209.3,170,209.2,170.1,209.1z"/>
		</g>
		<g>
			<path fill="#1FA6DC" d="M193.5,239L193.5,239L193.5,239z"/>
		</g>
		<g>
			<path fill="#1FA6DC" d="M169.3,239.2L169.3,239.2L169.3,239.2z"/>
		</g>
	</g>
	<g>
		<g>
			<path fill="#1FA6DC" d="M294.6,265.5v-8.4h-12.3v8.4c0,0.3-0.1,0.4-0.4,0.4h-0.7c-0.3,0-0.4-0.1-0.4-0.4v-17.9
				c0-0.1,0-0.2,0.1-0.3c0.1-0.1,0.2-0.1,0.3-0.1h0.7c0.3,0,0.4,0.1,0.4,0.4v8h12.3v-8c0-0.1,0-0.2,0.1-0.3c0.1-0.1,0.2-0.1,0.3-0.1
				h0.7c0.3,0,0.4,0.1,0.4,0.4v17.9c0,0.3-0.1,0.4-0.4,0.4H295C294.7,265.9,294.6,265.8,294.6,265.5z"/>
			<path fill="#1FA6DC" d="M305.5,266.2c-0.8,0-1.6-0.2-2.4-0.5s-1.4-0.8-1.9-1.4c-0.5-0.6-1-1.3-1.3-2.1c-0.3-0.8-0.5-1.6-0.5-2.5
				c0-0.9,0.2-1.7,0.5-2.5c0.3-0.8,0.7-1.5,1.3-2.1c0.5-0.6,1.2-1.1,1.9-1.4c0.7-0.3,1.5-0.5,2.3-0.5c0.8,0,1.5,0.2,2.2,0.5
				c0.7,0.3,1.3,0.8,1.8,1.3c0.5,0.6,0.9,1.2,1.3,2s0.5,1.6,0.5,2.4c0,0.3-0.1,0.5-0.3,0.6c-0.2,0.1-0.4,0.2-0.7,0.2h-9.3
				c0,0.6,0.2,1.2,0.4,1.7s0.6,1,1,1.4s0.9,0.7,1.4,1c0.5,0.2,1.1,0.4,1.7,0.4h0.1c0.7,0,1.4-0.1,2-0.4c0.6-0.3,1.2-0.7,1.6-1.1
				c0.1-0.1,0.2-0.2,0.4-0.2s0.2,0,0.3,0.1l0.3,0.4c0.1,0.1,0.2,0.3,0.2,0.4c0,0.1-0.1,0.2-0.3,0.4c-0.6,0.5-1.3,1-2,1.3
				C307.2,266,306.4,266.2,305.5,266.2z M305.4,254.7c-0.6,0-1.1,0.1-1.6,0.3s-0.9,0.5-1.3,0.9c-0.4,0.4-0.7,0.8-1,1.3
				c-0.3,0.5-0.4,1.1-0.5,1.7h8.8c-0.1-0.6-0.2-1.1-0.5-1.7c-0.3-0.5-0.6-1-1-1.3c-0.4-0.4-0.8-0.7-1.3-0.9S305.9,254.7,305.4,254.7
				z"/>
			<path fill="#1FA6DC" d="M324.9,254.1v11.5c0,0.3-0.1,0.4-0.4,0.4h-0.6c-0.2,0-0.3,0-0.3-0.1c0-0.1-0.1-0.2-0.1-0.4v-2.2
				c-0.3,0.9-0.9,1.7-1.7,2.2s-1.8,0.8-2.9,0.8c-0.9,0-1.7-0.2-2.4-0.5s-1.4-0.8-1.9-1.4c-0.5-0.6-1-1.3-1.3-2
				c-0.3-0.8-0.5-1.6-0.5-2.5c0-0.9,0.2-1.7,0.5-2.5c0.3-0.8,0.7-1.5,1.3-2.1c0.5-0.6,1.2-1.1,1.9-1.4c0.7-0.3,1.5-0.5,2.4-0.5
				c0.6,0,1.1,0.1,1.6,0.2c0.5,0.1,1,0.3,1.4,0.6c0.4,0.3,0.8,0.6,1,0.9c0.3,0.4,0.5,0.8,0.6,1.2l0-2.2c0-0.2,0.1-0.3,0.1-0.4
				s0.2-0.1,0.4-0.1h0.5C324.8,253.6,324.9,253.7,324.9,254.1z M323.5,259.8c0-0.7-0.1-1.3-0.3-2c-0.2-0.6-0.5-1.2-0.9-1.6
				c-0.4-0.5-0.9-0.8-1.5-1.1c-0.6-0.3-1.2-0.4-1.9-0.4s-1.3,0.1-1.9,0.4c-0.6,0.3-1.1,0.6-1.5,1.1s-0.7,1-1,1.6
				c-0.2,0.6-0.3,1.3-0.3,2s0.1,1.3,0.4,1.9c0.2,0.6,0.6,1.1,1,1.6s0.9,0.8,1.5,1.1c0.6,0.3,1.2,0.4,1.9,0.4s1.3-0.1,1.9-0.4
				c0.6-0.3,1-0.6,1.5-1.1c0.4-0.5,0.7-1,0.9-1.6S323.5,260.5,323.5,259.8z"/>
			<path fill="#1FA6DC" d="M328.8,265.5v-17.9c0-0.3,0.2-0.5,0.5-0.5h0.5c0.3,0,0.5,0.2,0.5,0.5l0,17.9c0,0.3-0.2,0.5-0.5,0.5h-0.5
				C329,265.9,328.8,265.8,328.8,265.5z"/>
			<path fill="#1FA6DC" d="M338.2,264.6h0.5c0.1,0,0.3,0,0.4,0.1c0.1,0,0.2,0.1,0.2,0.3v0.7c0,0.2-0.1,0.3-0.2,0.3
				c-0.1,0-0.3,0.1-0.4,0.1h-0.4c-0.4,0-0.8,0-1.2-0.1c-0.4-0.1-0.7-0.3-1-0.5s-0.5-0.6-0.6-1c-0.2-0.4-0.2-1-0.2-1.7v-7.8h-1.7
				c-0.2,0-0.3,0-0.4-0.1c-0.1-0.1-0.1-0.2-0.1-0.4V254c0-0.2,0-0.3,0.1-0.4c0.1-0.1,0.2-0.1,0.4-0.1h1.7v-3.7
				c0-0.3,0.1-0.4,0.4-0.4l0.6-0.1c0.2,0,0.3,0,0.3,0.1c0.1,0.1,0.1,0.3,0.1,0.4v3.7h2.2c0.3,0,0.5,0.2,0.5,0.5v0.4
				c0,0.3-0.2,0.5-0.5,0.5h-2.2v7.4c0,0.9,0.1,1.5,0.4,1.8S337.7,264.6,338.2,264.6z"/>
			<path fill="#1FA6DC" d="M351.7,265.5v-7c0-0.5-0.1-1-0.3-1.4c-0.2-0.4-0.4-0.8-0.7-1.2c-0.3-0.3-0.7-0.6-1.1-0.8
				c-0.4-0.2-0.9-0.3-1.4-0.3c-0.5,0-1,0.1-1.5,0.3c-0.5,0.2-0.9,0.4-1.3,0.8c-0.4,0.3-0.7,0.7-0.9,1.2c-0.2,0.4-0.4,0.9-0.4,1.4
				v7.1c0,0.3-0.2,0.5-0.5,0.5h-0.5c-0.3,0-0.5-0.2-0.5-0.5v-17.8c0-0.3,0.1-0.5,0.4-0.5h0.6c0.3,0,0.4,0.2,0.4,0.5v7.7
				c0.4-0.6,1-1.1,1.7-1.5c0.7-0.4,1.5-0.6,2.4-0.6c0.8,0,1.4,0.1,2,0.4c0.6,0.3,1.1,0.7,1.5,1.2c0.4,0.5,0.7,1.1,1,1.7
				c0.2,0.7,0.3,1.4,0.3,2.1v6.7c0,0.3-0.1,0.5-0.4,0.5h-0.6C351.8,265.9,351.7,265.8,351.7,265.5z"/>
			<path fill="#1FA6DC" d="M366,256.2c-0.4-0.4-1-0.7-1.5-1c-0.6-0.3-1.3-0.5-2-0.5c-0.7,0-1.3,0.1-2,0.4c-0.6,0.2-1.2,0.6-1.6,1
				c-0.5,0.4-0.8,1-1.1,1.6c-0.3,0.6-0.4,1.3-0.4,2c0,0.8,0.1,1.5,0.4,2.1c0.3,0.6,0.6,1.1,1.1,1.6s1,0.8,1.6,1
				c0.6,0.2,1.3,0.4,2,0.4c0.6,0,1.2-0.1,1.8-0.4s1.2-0.6,1.8-1.1c0.1-0.1,0.2-0.1,0.3-0.1c0.1,0,0.1,0.1,0.2,0.1l0.4,0.6
				c0,0,0.1,0.1,0.1,0.2c0,0.1,0,0.2-0.1,0.3c-0.6,0.6-1.3,1.1-2.1,1.4c-0.8,0.3-1.6,0.5-2.4,0.5c-0.8,0-1.6-0.2-2.4-0.5
				c-0.8-0.3-1.5-0.8-2.1-1.4s-1.1-1.3-1.4-2s-0.5-1.6-0.5-2.6c0-0.9,0.2-1.7,0.5-2.5c0.3-0.8,0.8-1.5,1.4-2c0.6-0.6,1.3-1,2.1-1.4
				c0.8-0.3,1.6-0.5,2.6-0.5c0.4,0,0.9,0.1,1.3,0.2s0.8,0.3,1.2,0.4c0.4,0.2,0.7,0.4,1.1,0.6c0.3,0.2,0.6,0.4,0.9,0.6
				c0.2,0.2,0.2,0.3,0.1,0.5l-0.5,0.6c0,0.1-0.1,0.1-0.2,0.1C366.1,256.3,366,256.2,366,256.2z"/>
			<path fill="#1FA6DC" d="M380.7,254.1v11.5c0,0.3-0.1,0.4-0.4,0.4h-0.6c-0.2,0-0.3,0-0.3-0.1c0-0.1-0.1-0.2-0.1-0.4v-2.2
				c-0.3,0.9-0.9,1.7-1.7,2.2c-0.8,0.5-1.8,0.8-2.9,0.8c-0.9,0-1.7-0.2-2.4-0.5s-1.4-0.8-1.9-1.4s-1-1.3-1.3-2
				c-0.3-0.8-0.5-1.6-0.5-2.5c0-0.9,0.2-1.7,0.5-2.5c0.3-0.8,0.7-1.5,1.3-2.1c0.5-0.6,1.2-1.1,1.9-1.4c0.7-0.3,1.5-0.5,2.4-0.5
				c0.6,0,1.1,0.1,1.6,0.2c0.5,0.1,1,0.3,1.4,0.6c0.4,0.3,0.8,0.6,1,0.9c0.3,0.4,0.5,0.8,0.6,1.2l0.1-2.2c0-0.2,0.1-0.3,0.1-0.4
				c0.1-0.1,0.2-0.1,0.4-0.1h0.5C380.6,253.6,380.7,253.7,380.7,254.1z M379.3,259.8c0-0.7-0.1-1.3-0.3-2c-0.2-0.6-0.5-1.2-0.9-1.6
				s-0.9-0.8-1.5-1.1c-0.6-0.3-1.2-0.4-1.9-0.4c-0.7,0-1.3,0.1-1.9,0.4c-0.6,0.3-1.1,0.6-1.5,1.1s-0.7,1-1,1.6
				c-0.2,0.6-0.3,1.3-0.3,2s0.1,1.3,0.4,1.9s0.6,1.1,1,1.6s0.9,0.8,1.5,1.1c0.6,0.3,1.2,0.4,1.9,0.4c0.7,0,1.3-0.1,1.9-0.4
				c0.6-0.3,1-0.6,1.5-1.1s0.7-1,0.9-1.6C379.2,261.1,379.3,260.5,379.3,259.8z"/>
			<path fill="#1FA6DC" d="M384.7,265.5v-11.4c0-0.4,0.1-0.6,0.4-0.6h0.6c0.2,0,0.2,0,0.3,0.1s0.1,0.2,0.1,0.3l0,1.4
				c0.2-0.6,0.6-1.1,1.2-1.5c0.6-0.4,1.3-0.6,2.1-0.6c0.4,0,0.8,0.1,1.3,0.2c0.5,0.1,0.8,0.3,1.1,0.5c0.1,0.1,0.2,0.2,0.3,0.3
				c0.1,0.1,0.1,0.3,0,0.4l-0.4,0.6c-0.1,0.1-0.2,0.1-0.3,0.1c-0.1,0-0.2,0-0.2-0.1c-0.2-0.2-0.5-0.3-0.8-0.4
				c-0.3-0.1-0.6-0.2-1-0.2c-0.5,0-0.9,0.1-1.3,0.3c-0.4,0.2-0.7,0.5-1,0.9c-0.3,0.4-0.5,0.8-0.7,1.2c-0.2,0.5-0.2,0.9-0.2,1.4v6.8
				c0,0.3-0.2,0.5-0.5,0.5h-0.5C384.8,265.9,384.7,265.8,384.7,265.5z"/>
			<path fill="#1FA6DC" d="M399,266.2c-0.8,0-1.6-0.2-2.4-0.5c-0.7-0.3-1.4-0.8-1.9-1.4c-0.5-0.6-1-1.3-1.3-2.1
				c-0.3-0.8-0.5-1.6-0.5-2.5c0-0.9,0.2-1.7,0.5-2.5c0.3-0.8,0.7-1.5,1.3-2.1c0.5-0.6,1.2-1.1,1.9-1.4c0.7-0.3,1.5-0.5,2.3-0.5
				c0.8,0,1.5,0.2,2.2,0.5c0.7,0.3,1.3,0.8,1.8,1.3c0.5,0.6,0.9,1.2,1.3,2c0.3,0.8,0.5,1.6,0.5,2.4c0,0.3-0.1,0.5-0.3,0.6
				c-0.2,0.1-0.4,0.2-0.7,0.2h-9.3c0,0.6,0.2,1.2,0.4,1.7c0.3,0.5,0.6,1,1,1.4c0.4,0.4,0.9,0.7,1.4,1c0.5,0.2,1.1,0.4,1.7,0.4h0
				c0.7,0,1.4-0.1,2-0.4c0.6-0.3,1.2-0.7,1.6-1.1c0.1-0.1,0.2-0.2,0.4-0.2s0.2,0,0.3,0.1l0.3,0.4c0.1,0.1,0.2,0.3,0.2,0.4
				c0,0.1-0.1,0.2-0.3,0.4c-0.6,0.5-1.3,1-2,1.3C400.7,266,399.9,266.2,399,266.2z M398.9,254.7c-0.6,0-1.1,0.1-1.6,0.3
				s-0.9,0.5-1.3,0.9c-0.4,0.4-0.7,0.8-1,1.3c-0.3,0.5-0.4,1.1-0.5,1.7h8.8c-0.1-0.6-0.2-1.1-0.5-1.7c-0.3-0.5-0.6-1-1-1.3
				c-0.4-0.4-0.8-0.7-1.3-0.9S399.4,254.7,398.9,254.7z"/>
			<path fill="#1FA6DC" d="M426.4,263.6l4.1-9.8c0.1-0.1,0.2-0.2,0.3-0.2h0.8c0.3,0,0.4,0.1,0.3,0.4l-4.9,11.6
				c-0.1,0.1-0.1,0.2-0.2,0.3c-0.1,0.1-0.2,0.1-0.3,0.1h-0.5c-0.1,0-0.2,0-0.3-0.1c-0.1-0.1-0.1-0.1-0.2-0.3l-2.7-6.5l-2.7,6.5
				c-0.1,0.1-0.1,0.2-0.2,0.3c-0.1,0.1-0.2,0.1-0.3,0.1h-0.5c-0.2,0-0.3,0-0.3-0.1c-0.1-0.1-0.1-0.1-0.2-0.3l-4.8-11.5
				c-0.1-0.4,0-0.6,0.3-0.6h0.8c0.2,0,0.3,0.1,0.4,0.2l4.1,9.8l4.1-9.8c0.1-0.1,0.2-0.2,0.4-0.2h0.9c0.3,0,0.4,0.1,0.3,0.4l-1.4,3.2
				L426.4,263.6z"/>
			<path fill="#1FA6DC" d="M434.3,249.9c0-0.3,0.1-0.6,0.3-0.8s0.5-0.3,0.8-0.3c0.3,0,0.6,0.1,0.8,0.3s0.3,0.5,0.3,0.8
				c0,0.3-0.1,0.6-0.3,0.8s-0.5,0.3-0.8,0.3c-0.3,0-0.6-0.1-0.8-0.3S434.3,250.3,434.3,249.9z M434.8,265.5V254
				c0-0.3,0.2-0.5,0.5-0.5h0.5c0.3,0,0.5,0.2,0.5,0.5v11.5c0,0.3-0.2,0.5-0.5,0.5h-0.5C434.9,265.9,434.8,265.8,434.8,265.5z"/>
			<path fill="#1FA6DC" d="M444.1,264.6h0.5c0.1,0,0.3,0,0.4,0.1s0.2,0.1,0.2,0.3v0.7c0,0.2-0.1,0.3-0.2,0.3c-0.1,0-0.3,0.1-0.4,0.1
				h-0.4c-0.4,0-0.8,0-1.2-0.1s-0.7-0.3-1-0.5s-0.5-0.6-0.6-1c-0.2-0.4-0.2-1-0.2-1.7v-7.8h-1.7c-0.2,0-0.3,0-0.4-0.1
				c-0.1-0.1-0.1-0.2-0.1-0.4V254c0-0.2,0-0.3,0.1-0.4c0.1-0.1,0.2-0.1,0.4-0.1h1.7v-3.7c0-0.3,0.1-0.4,0.4-0.4l0.6-0.1
				c0.2,0,0.3,0,0.3,0.1c0,0.1,0.1,0.3,0.1,0.4v3.7h2.2c0.3,0,0.5,0.2,0.5,0.5v0.4c0,0.3-0.2,0.5-0.5,0.5h-2.2v7.4
				c0,0.9,0.1,1.5,0.4,1.8S443.6,264.6,444.1,264.6z"/>
			<path fill="#1FA6DC" d="M457.6,265.5v-7c0-0.5-0.1-1-0.3-1.4c-0.2-0.4-0.4-0.8-0.7-1.2c-0.3-0.3-0.7-0.6-1.1-0.8
				c-0.4-0.2-0.9-0.3-1.4-0.3c-0.5,0-1,0.1-1.5,0.3c-0.5,0.2-0.9,0.4-1.3,0.8c-0.4,0.3-0.7,0.7-0.9,1.2c-0.2,0.4-0.4,0.9-0.4,1.4
				v7.1c0,0.3-0.2,0.5-0.5,0.5h-0.5c-0.3,0-0.5-0.2-0.5-0.5v-17.8c0-0.3,0.1-0.5,0.4-0.5h0.6c0.3,0,0.4,0.2,0.4,0.5v7.7
				c0.4-0.6,1-1.1,1.7-1.5c0.7-0.4,1.5-0.6,2.4-0.6c0.8,0,1.4,0.1,2,0.4s1.1,0.7,1.5,1.2c0.4,0.5,0.7,1.1,1,1.7
				c0.2,0.7,0.3,1.4,0.3,2.1v6.7c0,0.3-0.1,0.5-0.4,0.5h-0.6C457.8,265.9,457.6,265.8,457.6,265.5z"/>
			<path fill="#1FA6DC" d="M462,259.8c0-0.9,0.2-1.7,0.5-2.5s0.8-1.5,1.3-2.1c0.6-0.6,1.2-1.1,2-1.4c0.8-0.3,1.6-0.5,2.5-0.5
				c0.9,0,1.7,0.2,2.5,0.5c0.8,0.3,1.4,0.8,2,1.4c0.6,0.6,1,1.3,1.3,2.1c0.3,0.8,0.5,1.6,0.5,2.5c0,0.9-0.2,1.7-0.5,2.5
				c-0.3,0.8-0.8,1.5-1.3,2.1c-0.6,0.6-1.2,1.1-2,1.4s-1.6,0.5-2.5,0.5c-0.9,0-1.7-0.2-2.5-0.5s-1.4-0.8-2-1.4
				c-0.6-0.6-1-1.3-1.3-2.1S462,260.7,462,259.8z M463.4,259.8c0,0.7,0.1,1.3,0.4,2c0.2,0.6,0.6,1.2,1,1.6s0.9,0.8,1.5,1.1
				c0.6,0.3,1.2,0.4,1.9,0.4c0.7,0,1.3-0.1,1.9-0.4c0.6-0.3,1.1-0.6,1.5-1.1c0.4-0.5,0.8-1,1-1.6c0.2-0.6,0.4-1.3,0.4-2
				s-0.1-1.3-0.4-2c-0.2-0.6-0.6-1.2-1-1.6c-0.4-0.5-0.9-0.8-1.5-1.1c-0.6-0.3-1.2-0.4-1.9-0.4c-0.7,0-1.3,0.1-1.9,0.4
				c-0.6,0.3-1.1,0.6-1.5,1.1s-0.8,1-1,1.6C463.5,258.4,463.4,259.1,463.4,259.8z"/>
			<path fill="#1FA6DC" d="M477.1,261V254c0-0.3,0.1-0.4,0.4-0.4h0.6c0.2,0,0.3,0,0.4,0.1c0.1,0.1,0.1,0.2,0.1,0.4v7
				c0,0.5,0.1,1,0.3,1.5c0.2,0.4,0.5,0.8,0.8,1.2c0.4,0.3,0.8,0.6,1.2,0.8c0.5,0.2,1,0.3,1.5,0.3c0.5,0,1-0.1,1.5-0.3
				c0.5-0.2,0.9-0.5,1.2-0.8c0.4-0.3,0.6-0.7,0.8-1.2c0.2-0.4,0.3-0.9,0.3-1.5v-7c0-0.3,0.2-0.5,0.5-0.5h0.5c0.3,0,0.5,0.2,0.5,0.5
				v11.5c0,0.3-0.2,0.5-0.5,0.5h-0.4c-0.3,0-0.4-0.2-0.5-0.5l-0.1-1.5c-0.4,0.6-1,1.2-1.6,1.6c-0.7,0.4-1.4,0.6-2.3,0.6
				c-0.7,0-1.4-0.1-2-0.4s-1.2-0.6-1.7-1.1c-0.5-0.5-0.8-1-1.1-1.7C477.3,262.4,477.1,261.7,477.1,261z"/>
			<path fill="#1FA6DC" d="M495.9,264.6h0.5c0.1,0,0.3,0,0.4,0.1s0.2,0.1,0.2,0.3v0.7c0,0.2-0.1,0.3-0.2,0.3c-0.1,0-0.3,0.1-0.4,0.1
				h-0.4c-0.4,0-0.8,0-1.2-0.1s-0.7-0.3-1-0.5s-0.5-0.6-0.6-1c-0.2-0.4-0.2-1-0.2-1.7v-7.8h-1.7c-0.2,0-0.3,0-0.4-0.1
				c-0.1-0.1-0.1-0.2-0.1-0.4V254c0-0.2,0-0.3,0.1-0.4c0.1-0.1,0.2-0.1,0.4-0.1h1.7v-3.7c0-0.3,0.1-0.4,0.4-0.4l0.6-0.1
				c0.2,0,0.3,0,0.3,0.1c0,0.1,0.1,0.3,0.1,0.4v3.7h2.2c0.3,0,0.5,0.2,0.5,0.5v0.4c0,0.3-0.2,0.5-0.5,0.5h-2.2v7.4
				c0,0.9,0.1,1.5,0.4,1.8S495.4,264.6,495.9,264.6z"/>
			<path fill="#1FA6DC" d="M514.1,256.1c-0.3-0.4-0.6-0.8-1.1-1.1c-0.4-0.3-1-0.4-1.5-0.4c-0.7,0-1.3,0.2-1.8,0.6
				c-0.5,0.4-0.7,0.9-0.7,1.5c0,0.3,0.1,0.6,0.2,0.8c0.2,0.2,0.3,0.4,0.6,0.6c0.2,0.2,0.5,0.3,0.8,0.4c0.3,0.1,0.5,0.2,0.8,0.3
				c2.9,0.7,4.4,2,4.4,3.9c0,0.6-0.1,1.1-0.4,1.5c-0.2,0.4-0.6,0.8-1,1.1c-0.4,0.3-0.9,0.5-1.4,0.7c-0.5,0.2-1.1,0.2-1.7,0.2
				c-1,0-1.8-0.2-2.6-0.7c-0.8-0.4-1.3-1.1-1.6-1.9c-0.1-0.3,0-0.5,0.3-0.6l0.5-0.2c0.3-0.1,0.5,0,0.6,0.3l0.1,0.1
				c0.1,0.3,0.3,0.5,0.5,0.7c0.2,0.2,0.5,0.4,0.7,0.5c0.3,0.1,0.5,0.2,0.8,0.3c0.3,0.1,0.5,0.1,0.7,0.1c0.3,0,0.6,0,1-0.1
				c0.3-0.1,0.7-0.2,0.9-0.4c0.3-0.2,0.5-0.4,0.7-0.7c0.2-0.3,0.3-0.6,0.3-1c0-0.4-0.1-0.7-0.3-0.9c-0.2-0.3-0.4-0.5-0.7-0.7
				c-0.3-0.2-0.6-0.4-1-0.5c-0.4-0.1-0.7-0.2-1.1-0.3c-0.5-0.1-0.9-0.3-1.4-0.5s-0.8-0.4-1.2-0.7c-0.3-0.3-0.6-0.6-0.8-1
				c-0.2-0.4-0.3-0.8-0.3-1.3c0-1,0.4-1.9,1.1-2.5c0.7-0.6,1.6-0.9,2.8-0.9c0.9,0,1.6,0.2,2.3,0.5c0.7,0.3,1.2,0.9,1.7,1.7
				c0.1,0.1,0.1,0.2,0.1,0.3s-0.1,0.2-0.2,0.3l-0.5,0.3c-0.2,0.2-0.4,0.1-0.6,0c0,0-0.1-0.1-0.1-0.1
				C514.2,256.2,514.1,256.2,514.1,256.1z"/>
			<path fill="#1FA6DC" d="M522.8,264.6h0.5c0.1,0,0.3,0,0.4,0.1s0.2,0.1,0.2,0.3v0.7c0,0.2-0.1,0.3-0.2,0.3c-0.1,0-0.3,0.1-0.4,0.1
				h-0.4c-0.4,0-0.8,0-1.2-0.1s-0.7-0.3-1-0.5s-0.5-0.6-0.6-1c-0.2-0.4-0.2-1-0.2-1.7v-7.8h-1.7c-0.2,0-0.3,0-0.4-0.1
				c-0.1-0.1-0.1-0.2-0.1-0.4V254c0-0.2,0-0.3,0.1-0.4c0.1-0.1,0.2-0.1,0.4-0.1h1.7v-3.7c0-0.3,0.1-0.4,0.4-0.4l0.6-0.1
				c0.2,0,0.3,0,0.3,0.1c0,0.1,0.1,0.3,0.1,0.4v3.7h2.2c0.3,0,0.5,0.2,0.5,0.5v0.4c0,0.3-0.2,0.5-0.5,0.5h-2.2v7.4
				c0,0.9,0.1,1.5,0.4,1.8S522.3,264.6,522.8,264.6z"/>
			<path fill="#1FA6DC" d="M527.3,265.5v-11.4c0-0.4,0.1-0.6,0.4-0.6h0.6c0.2,0,0.2,0,0.3,0.1s0.1,0.2,0.1,0.3l0,1.4
				c0.2-0.6,0.6-1.1,1.2-1.5c0.6-0.4,1.3-0.6,2.1-0.6c0.4,0,0.8,0.1,1.3,0.2c0.5,0.1,0.8,0.3,1.1,0.5c0.1,0.1,0.2,0.2,0.3,0.3
				c0.1,0.1,0.1,0.3,0,0.4l-0.4,0.6c-0.1,0.1-0.2,0.1-0.3,0.1c-0.1,0-0.2,0-0.2-0.1c-0.2-0.2-0.5-0.3-0.8-0.4
				c-0.3-0.1-0.6-0.2-1-0.2c-0.5,0-0.9,0.1-1.3,0.3c-0.4,0.2-0.7,0.5-1,0.9s-0.5,0.8-0.7,1.2c-0.2,0.5-0.2,0.9-0.2,1.4v6.8
				c0,0.3-0.2,0.5-0.5,0.5h-0.5C527.4,265.9,527.3,265.8,527.3,265.5z"/>
			<path fill="#1FA6DC" d="M541.7,266.2c-0.8,0-1.6-0.2-2.4-0.5c-0.7-0.3-1.4-0.8-1.9-1.4c-0.5-0.6-1-1.3-1.3-2.1
				c-0.3-0.8-0.5-1.6-0.5-2.5c0-0.9,0.2-1.7,0.5-2.5c0.3-0.8,0.7-1.5,1.3-2.1c0.5-0.6,1.2-1.1,1.9-1.4c0.7-0.3,1.5-0.5,2.3-0.5
				c0.8,0,1.5,0.2,2.2,0.5c0.7,0.3,1.3,0.8,1.8,1.3c0.5,0.6,0.9,1.2,1.3,2c0.3,0.8,0.5,1.6,0.5,2.4c0,0.3-0.1,0.5-0.3,0.6
				c-0.2,0.1-0.4,0.2-0.7,0.2h-9.3c0,0.6,0.2,1.2,0.4,1.7c0.3,0.5,0.6,1,1,1.4c0.4,0.4,0.9,0.7,1.4,1c0.5,0.2,1.1,0.4,1.7,0.4h0
				c0.7,0,1.4-0.1,2-0.4c0.6-0.3,1.2-0.7,1.6-1.1c0.1-0.1,0.2-0.2,0.4-0.2s0.2,0,0.3,0.1l0.3,0.4c0.1,0.1,0.2,0.3,0.2,0.4
				c0,0.1-0.1,0.2-0.3,0.4c-0.6,0.5-1.3,1-2,1.3C543.3,266,542.5,266.2,541.7,266.2z M541.5,254.7c-0.6,0-1.1,0.1-1.6,0.3
				s-0.9,0.5-1.3,0.9c-0.4,0.4-0.7,0.8-1,1.3c-0.3,0.5-0.4,1.1-0.5,1.7h8.8c-0.1-0.6-0.2-1.1-0.5-1.7c-0.3-0.5-0.6-1-1-1.3
				c-0.4-0.4-0.8-0.7-1.3-0.9S542.1,254.7,541.5,254.7z"/>
			<path fill="#1FA6DC" d="M555.8,256.1c-0.3-0.4-0.6-0.8-1.1-1.1c-0.4-0.3-1-0.4-1.5-0.4c-0.7,0-1.3,0.2-1.8,0.6
				c-0.5,0.4-0.7,0.9-0.7,1.5c0,0.3,0.1,0.6,0.2,0.8c0.2,0.2,0.3,0.4,0.6,0.6c0.2,0.2,0.5,0.3,0.8,0.4c0.3,0.1,0.5,0.2,0.8,0.3
				c2.9,0.7,4.4,2,4.4,3.9c0,0.6-0.1,1.1-0.4,1.5c-0.2,0.4-0.6,0.8-1,1.1c-0.4,0.3-0.9,0.5-1.4,0.7c-0.5,0.2-1.1,0.2-1.7,0.2
				c-1,0-1.8-0.2-2.6-0.7c-0.8-0.4-1.3-1.1-1.6-1.9c-0.1-0.3,0-0.5,0.3-0.6l0.5-0.2c0.3-0.1,0.5,0,0.6,0.3l0.1,0.1
				c0.1,0.3,0.3,0.5,0.5,0.7c0.2,0.2,0.5,0.4,0.7,0.5c0.3,0.1,0.5,0.2,0.8,0.3c0.3,0.1,0.5,0.1,0.7,0.1c0.3,0,0.6,0,1-0.1
				c0.3-0.1,0.7-0.2,0.9-0.4c0.3-0.2,0.5-0.4,0.7-0.7c0.2-0.3,0.3-0.6,0.3-1c0-0.4-0.1-0.7-0.3-0.9c-0.2-0.3-0.4-0.5-0.7-0.7
				c-0.3-0.2-0.6-0.4-1-0.5c-0.4-0.1-0.7-0.2-1.1-0.3c-0.5-0.1-0.9-0.3-1.4-0.5s-0.8-0.4-1.2-0.7c-0.3-0.3-0.6-0.6-0.8-1
				c-0.2-0.4-0.3-0.8-0.3-1.3c0-1,0.4-1.9,1.1-2.5c0.7-0.6,1.6-0.9,2.8-0.9c0.9,0,1.6,0.2,2.3,0.5c0.7,0.3,1.2,0.9,1.7,1.7
				c0.1,0.1,0.1,0.2,0.1,0.3s-0.1,0.2-0.2,0.3l-0.5,0.3c-0.2,0.2-0.4,0.1-0.6,0c0,0-0.1-0.1-0.1-0.1
				C555.9,256.2,555.9,256.2,555.8,256.1z"/>
			<path fill="#1FA6DC" d="M566.6,256.1c-0.3-0.4-0.6-0.8-1.1-1.1c-0.4-0.3-1-0.4-1.5-0.4c-0.7,0-1.3,0.2-1.8,0.6
				c-0.5,0.4-0.7,0.9-0.7,1.5c0,0.3,0.1,0.6,0.2,0.8c0.2,0.2,0.3,0.4,0.6,0.6c0.2,0.2,0.5,0.3,0.8,0.4c0.3,0.1,0.5,0.2,0.8,0.3
				c2.9,0.7,4.4,2,4.4,3.9c0,0.6-0.1,1.1-0.4,1.5c-0.2,0.4-0.6,0.8-1,1.1c-0.4,0.3-0.9,0.5-1.4,0.7c-0.5,0.2-1.1,0.2-1.7,0.2
				c-1,0-1.8-0.2-2.6-0.7c-0.8-0.4-1.3-1.1-1.6-1.9c-0.1-0.3,0-0.5,0.3-0.6l0.5-0.2c0.3-0.1,0.5,0,0.6,0.3l0.1,0.1
				c0.1,0.3,0.3,0.5,0.5,0.7c0.2,0.2,0.5,0.4,0.7,0.5c0.3,0.1,0.5,0.2,0.8,0.3c0.3,0.1,0.5,0.1,0.7,0.1c0.3,0,0.6,0,1-0.1
				c0.3-0.1,0.7-0.2,0.9-0.4c0.3-0.2,0.5-0.4,0.7-0.7c0.2-0.3,0.3-0.6,0.3-1c0-0.4-0.1-0.7-0.3-0.9c-0.2-0.3-0.4-0.5-0.7-0.7
				c-0.3-0.2-0.6-0.4-1-0.5c-0.4-0.1-0.7-0.2-1.1-0.3c-0.5-0.1-0.9-0.3-1.4-0.5s-0.8-0.4-1.2-0.7c-0.3-0.3-0.6-0.6-0.8-1
				c-0.2-0.4-0.3-0.8-0.3-1.3c0-1,0.4-1.9,1.1-2.5c0.7-0.6,1.6-0.9,2.8-0.9c0.9,0,1.6,0.2,2.3,0.5c0.7,0.3,1.2,0.9,1.7,1.7
				c0.1,0.1,0.1,0.2,0.1,0.3s-0.1,0.2-0.2,0.3l-0.5,0.3c-0.2,0.2-0.4,0.1-0.6,0c0,0-0.1-0.1-0.1-0.1
				C566.6,256.2,566.6,256.2,566.6,256.1z"/>
		</g>
		<g>
			<path fill="#2A5DA6" d="M246.7,200.3v6.1c0,1-0.6,1.6-1.6,1.6h-3.6v21.6c0,1-0.6,1.6-1.6,1.6h-6.5c-1,0-1.6-0.6-1.6-1.6v-21.6
				h-3.6c-1,0-1.6-0.6-1.6-1.6v-6.1c0-1,0.6-1.6,1.6-1.6h3.6v-8.8c0-1,0.6-1.6,1.6-1.6h6.5c1,0,1.6,0.6,1.6,1.6v8.8h3.6
				C246.1,198.7,246.7,199.3,246.7,200.3z"/>
			<path fill="#2A5DA6" d="M278,210.8v18.9c0,1-0.6,1.6-1.6,1.6h-6.3c-1,0-1.6-0.6-1.6-1.6v-0.9c-1.7,2-4.3,3.5-8.4,3.5
				c-5.7,0-10.8-3.4-10.8-10.2c0-6.8,5-10.2,10.8-10.2c4.1,0,6.7,1.2,8.4,2.5v-2.9c0-3.2-1.3-4.6-4-4.6c-2,0-3.3,0.8-3.8,1.9
				c-0.4,0.9-0.7,1.4-1.7,1.4h-6.4c-1,0-1.7-0.6-1.6-1.7c0.8-7,6.8-10.6,13.5-10.6C271.6,197.8,278,202,278,210.8z M268.5,222.1
				c0-2-1.8-3.3-5-3.3c-3,0-4.4,1.4-4.4,3.3s1.4,3.3,4.4,3.3C266.7,225.3,268.5,223.9,268.5,222.1z"/>
			<path fill="#2A5DA6" d="M319.4,215c0,9.7-7,17.2-15.6,17.2c-4.4,0-7.5-1.5-9.7-4v14.5c0,1-0.6,1.6-1.6,1.6H286
				c-1,0-1.6-0.6-1.6-1.6v-42.4c0-1,0.6-1.6,1.6-1.6h6.5c1,0,1.6,0.6,1.6,1.6v1.4c2.2-2.5,5.4-4,9.7-4
				C312.4,197.8,319.4,205.3,319.4,215z M309.6,215c0-4.9-3.3-8-7.8-8s-7.8,3.1-7.8,8c0,4.9,3.3,8,7.8,8S309.6,219.9,309.6,215z"/>
			<path fill="#2A5DA6" d="M368.3,210.8v18.9c0,1-0.6,1.6-1.6,1.6h-6.3c-1,0-1.6-0.6-1.6-1.6v-0.9c-1.7,2-4.3,3.5-8.4,3.5
				c-5.7,0-10.8-3.4-10.8-10.2c0-6.8,5-10.2,10.8-10.2c4.1,0,6.7,1.2,8.4,2.5v-2.9c0-3.2-1.3-4.6-4-4.6c-2,0-3.3,0.8-3.8,1.9
				c-0.4,0.9-0.7,1.4-1.7,1.4h-6.4c-1,0-1.7-0.6-1.6-1.7c0.8-7,6.8-10.6,13.5-10.6C362,197.8,368.3,202,368.3,210.8z M358.8,222.1
				c0-2-1.8-3.3-5-3.3c-3,0-4.4,1.4-4.4,3.3s1.4,3.3,4.4,3.3C357.1,225.3,358.8,223.9,358.8,222.1z"/>
			<path fill="#2A5DA6" d="M424.6,197.8c6.4,0,10.1,4,10.1,11.5v20.4c0,1-0.6,1.6-1.6,1.6h-6.5c-1,0-1.6-0.6-1.6-1.6v-19.5
				c0-2.6-1.6-3.4-3.4-3.4c-2,0-3.8,1-3.8,4.2v18.7c0,1-0.6,1.6-1.6,1.6h-6.5c-1,0-1.6-0.6-1.6-1.6v-19.5c0-2.6-1.6-3.4-3.4-3.4
				c-2,0-3.8,1-3.8,4.2v18.7c0,1-0.6,1.6-1.6,1.6h-6.5c-1,0-1.6-0.6-1.6-1.6v-29.4c0-1,0.6-1.6,1.6-1.6h6.5c1,0,1.6,0.6,1.6,1.6v1.3
				c1.5-2.3,4.1-3.9,7.5-3.9c3.3,0,5.9,1.3,7.6,3.9C417.9,199.4,420.7,197.8,424.6,197.8L424.6,197.8z"/>
			<path fill="#2A5DA6" d="M473.3,215c0,0.8-0.1,1.6-0.1,2.4c-0.1,1-0.8,1.5-1.8,1.5h-8h-13.8c1.2,3.9,4.2,5.4,7.6,5.4
				c1.8,0,3.7-0.7,4.8-1.6c0.7-0.5,1.2-0.8,2-0.8l6.3-0.1c1.2,0,1.8,0.8,1.3,1.8c-2.5,5.7-7.9,8.6-14.5,8.6
				c-10.8,0-17.7-7.5-17.7-17.2c0-9.7,7.2-17.2,17.5-17.2C466.4,197.8,473.3,205.2,473.3,215z M463.6,211.5c-1-3.7-3.9-5-6.8-5
				c-3.7,0-6.2,1.8-7.2,5H463.6z"/>
			<path fill="#2A5DA6" d="M512.2,187.3v42.4c0,1-0.6,1.6-1.6,1.6H504c-1,0-1.6-0.6-1.6-1.6v-1.4c-2.2,2.5-5.4,4-9.7,4
				c-8.5,0-15.6-7.5-15.6-17.2c0-9.7,7-17.2,15.6-17.2c4.4,0,7.5,1.5,9.7,4v-14.5c0-1,0.6-1.6,1.6-1.6h6.5
				C511.6,185.7,512.2,186.2,512.2,187.3z M502.4,215c0-4.9-3.3-8-7.8-8s-7.8,3.1-7.8,8c0,4.9,3.3,8,7.8,8S502.4,219.9,502.4,215z"
				/>
			<path fill="#2A5DA6" d="M519.3,193.2v-5.9c0-1,0.6-1.6,1.6-1.6h6.5c1,0,1.6,0.6,1.6,1.6v5.9c0,1-0.6,1.6-1.6,1.6H521
				C519.9,194.8,519.3,194.2,519.3,193.2z M519.3,229.7v-29.4c0-1,0.6-1.6,1.6-1.6h6.5c1,0,1.6,0.6,1.6,1.6v29.4
				c0,1-0.6,1.6-1.6,1.6H521C519.9,231.3,519.3,230.7,519.3,229.7z"/>
			<path fill="#2A5DA6" d="M568,220.7c-2,6.8-8.4,11.5-16,11.5c-9.9,0-17.3-7.5-17.3-17.2c0-9.7,7.4-17.2,17.3-17.2
				c7.6,0,14,4.7,16,11.5c0.4,1.1-0.3,1.8-1.4,1.8h-7.2c-0.8,0-1.4-0.4-2-1.1c-1.2-1.6-3.2-2.5-5.5-2.5c-4.2,0-7.5,3.1-7.5,7.6
				c0,4.5,3.3,7.6,7.5,7.6c2.3,0,4.4-0.9,5.5-2.5c0.5-0.8,1-1.2,2-1.2h7.2C567.7,218.9,568.4,219.6,568,220.7z"/>
		</g>
	</g>
</g>
</svg>
